<svg width="172" height="20" viewBox="0 0 172 20" fill="none" xmlns="http://www.w3.org/2000/svg">
<path d="M4.016 4.96V9.16H9.656V11.824H4.016V16.264H10.376V19H0.656V2.224H10.376V4.96H4.016ZM12.5654 12.304C12.5654 10.96 12.8294 9.768 13.3574 8.728C13.9014 7.688 14.6374 6.888 15.5654 6.328C16.4934 5.768 17.5254 5.488 18.6614 5.488C19.5254 5.488 20.3494 5.68 21.1334 6.064C21.9174 6.432 22.5414 6.928 23.0054 7.552V1.24H26.4134V19H23.0054V17.032C22.5894 17.688 22.0054 18.216 21.2534 18.616C20.5014 19.016 19.6294 19.216 18.6374 19.216C17.5174 19.216 16.4934 18.928 15.5654 18.352C14.6374 17.776 13.9014 16.968 13.3574 15.928C12.8294 14.872 12.5654 13.664 12.5654 12.304ZM23.0294 12.352C23.0294 11.536 22.8694 10.84 22.5494 10.264C22.2294 9.672 21.7974 9.224 21.2534 8.92C20.7094 8.6 20.1254 8.44 19.5014 8.44C18.8774 8.44 18.3014 8.592 17.7734 8.896C17.2454 9.2 16.8134 9.648 16.4774 10.24C16.1574 10.816 15.9974 11.504 15.9974 12.304C15.9974 13.104 16.1574 13.808 16.4774 14.416C16.8134 15.008 17.2454 15.464 17.7734 15.784C18.3174 16.104 18.8934 16.264 19.5014 16.264C20.1254 16.264 20.7094 16.112 21.2534 15.808C21.7974 15.488 22.2294 15.04 22.5494 14.464C22.8694 13.872 23.0294 13.168 23.0294 12.352ZM42.2471 5.704V19H38.8631V17.32C38.4311 17.896 37.8631 18.352 37.1591 18.688C36.4711 19.008 35.7191 19.168 34.9031 19.168C33.8631 19.168 32.9431 18.952 32.1431 18.52C31.3431 18.072 30.7111 17.424 30.2471 16.576C29.7991 15.712 29.5751 14.688 29.5751 13.504V5.704H32.9351V13.024C32.9351 14.08 33.1991 14.896 33.7271 15.472C34.2551 16.032 34.9751 16.312 35.8871 16.312C36.8151 16.312 37.5431 16.032 38.0711 15.472C38.5991 14.896 38.8631 14.08 38.8631 13.024V5.704H42.2471ZM44.6982 12.304C44.6982 10.96 44.9622 9.768 45.4902 8.728C46.0343 7.688 46.7623 6.888 47.6743 6.328C48.6023 5.768 49.6343 5.488 50.7703 5.488C51.7623 5.488 52.6263 5.688 53.3623 6.088C54.1143 6.488 54.7143 6.992 55.1623 7.6V5.704H58.5463V19H55.1623V17.056C54.7303 17.68 54.1303 18.2 53.3623 18.616C52.6103 19.016 51.7383 19.216 50.7463 19.216C49.6263 19.216 48.6023 18.928 47.6743 18.352C46.7623 17.776 46.0343 16.968 45.4902 15.928C44.9622 14.872 44.6982 13.664 44.6982 12.304ZM55.1623 12.352C55.1623 11.536 55.0023 10.84 54.6823 10.264C54.3623 9.672 53.9303 9.224 53.3863 8.92C52.8423 8.6 52.2583 8.44 51.6343 8.44C51.0103 8.44 50.4343 8.592 49.9062 8.896C49.3783 9.2 48.9463 9.648 48.6103 10.24C48.2903 10.816 48.1303 11.504 48.1303 12.304C48.1303 13.104 48.2903 13.808 48.6103 14.416C48.9463 15.008 49.3783 15.464 49.9062 15.784C50.4503 16.104 51.0263 16.264 51.6343 16.264C52.2583 16.264 52.8423 16.112 53.3863 15.808C53.9303 15.488 54.3623 15.04 54.6823 14.464C55.0023 13.872 55.1623 13.168 55.1623 12.352ZM65.1879 7.768C65.6199 7.064 66.1799 6.512 66.8679 6.112C67.5719 5.712 68.3719 5.512 69.2679 5.512V9.04H68.3799C67.3239 9.04 66.5239 9.288 65.9799 9.784C65.4519 10.28 65.1879 11.144 65.1879 12.376V19H61.8279V5.704H65.1879V7.768ZM70.667 12.304C70.667 10.96 70.931 9.768 71.459 8.728C72.003 7.688 72.739 6.888 73.667 6.328C74.595 5.768 75.627 5.488 76.763 5.488C77.627 5.488 78.451 5.68 79.235 6.064C80.019 6.432 80.643 6.928 81.107 7.552V1.24H84.515V19H81.107V17.032C80.691 17.688 80.107 18.216 79.355 18.616C78.603 19.016 77.731 19.216 76.739 19.216C75.619 19.216 74.595 18.928 73.667 18.352C72.739 17.776 72.003 16.968 71.459 15.928C70.931 14.872 70.667 13.664 70.667 12.304ZM81.131 12.352C81.131 11.536 80.971 10.84 80.651 10.264C80.331 9.672 79.899 9.224 79.355 8.92C78.811 8.6 78.227 8.44 77.603 8.44C76.979 8.44 76.403 8.592 75.875 8.896C75.347 9.2 74.915 9.648 74.579 10.24C74.259 10.816 74.099 11.504 74.099 12.304C74.099 13.104 74.259 13.808 74.579 14.416C74.915 15.008 75.347 15.464 75.875 15.784C76.419 16.104 76.995 16.264 77.603 16.264C78.227 16.264 78.811 16.112 79.355 15.808C79.899 15.488 80.331 15.04 80.651 14.464C80.971 13.872 81.131 13.168 81.131 12.352ZM86.9326 12.304C86.9326 10.96 87.1966 9.768 87.7246 8.728C88.2686 7.688 88.9966 6.888 89.9086 6.328C90.8366 5.768 91.8686 5.488 93.0046 5.488C93.9966 5.488 94.8606 5.688 95.5966 6.088C96.3486 6.488 96.9486 6.992 97.3966 7.6V5.704H100.781V19H97.3966V17.056C96.9646 17.68 96.3646 18.2 95.5966 18.616C94.8446 19.016 93.9726 19.216 92.9806 19.216C91.8606 19.216 90.8366 18.928 89.9086 18.352C88.9966 17.776 88.2686 16.968 87.7246 15.928C87.1966 14.872 86.9326 13.664 86.9326 12.304ZM97.3966 12.352C97.3966 11.536 97.2366 10.84 96.9166 10.264C96.5966 9.672 96.1646 9.224 95.6206 8.92C95.0766 8.6 94.4926 8.44 93.8686 8.44C93.2446 8.44 92.6686 8.592 92.1406 8.896C91.6126 9.2 91.1806 9.648 90.8446 10.24C90.5246 10.816 90.3646 11.504 90.3646 12.304C90.3646 13.104 90.5246 13.808 90.8446 14.416C91.1806 15.008 91.6126 15.464 92.1406 15.784C92.6846 16.104 93.2606 16.264 93.8686 16.264C94.4926 16.264 95.0766 16.112 95.6206 15.808C96.1646 15.488 96.5966 15.04 96.9166 14.464C97.2366 13.872 97.3966 13.168 97.3966 12.352ZM113.141 4.96V9.16H118.781V11.824H113.141V16.264H119.501V19H109.781V2.224H119.501V4.96H113.141ZM139.066 5.512C140.698 5.512 142.01 6.016 143.002 7.024C144.01 8.016 144.514 9.408 144.514 11.2V19H141.154V11.656C141.154 10.616 140.89 9.824 140.362 9.28C139.834 8.72 139.114 8.44 138.202 8.44C137.29 8.44 136.562 8.72 136.018 9.28C135.49 9.824 135.226 10.616 135.226 11.656V19H131.866V11.656C131.866 10.616 131.602 9.824 131.074 9.28C130.546 8.72 129.826 8.44 128.914 8.44C127.986 8.44 127.25 8.72 126.706 9.28C126.178 9.824 125.914 10.616 125.914 11.656V19H122.554V5.704H125.914V7.312C126.346 6.752 126.898 6.312 127.57 5.992C128.258 5.672 129.01 5.512 129.826 5.512C130.866 5.512 131.794 5.736 132.61 6.184C133.426 6.616 134.058 7.24 134.506 8.056C134.938 7.288 135.562 6.672 136.378 6.208C137.21 5.744 138.106 5.512 139.066 5.512ZM149.407 4.12C148.815 4.12 148.319 3.936 147.919 3.568C147.535 3.184 147.343 2.712 147.343 2.152C147.343 1.592 147.535 1.128 147.919 0.759999C148.319 0.375999 148.815 0.183999 149.407 0.183999C149.999 0.183999 150.487 0.375999 150.871 0.759999C151.271 1.128 151.471 1.592 151.471 2.152C151.471 2.712 151.271 3.184 150.871 3.568C150.487 3.936 149.999 4.12 149.407 4.12ZM151.063 5.704V19H147.703V5.704H151.063ZM157.743 1.24V19H154.383V1.24H157.743ZM164.422 1.24V19H161.062V1.24H164.422ZM169.446 4.12C168.854 4.12 168.358 3.936 167.958 3.568C167.574 3.184 167.382 2.712 167.382 2.152C167.382 1.592 167.574 1.128 167.958 0.759999C168.358 0.375999 168.854 0.183999 169.446 0.183999C170.038 0.183999 170.526 0.375999 170.91 0.759999C171.31 1.128 171.51 1.592 171.51 2.152C171.51 2.712 171.31 3.184 170.91 3.568C170.526 3.936 170.038 4.12 169.446 4.12ZM171.102 5.704V19H167.742V5.704H171.102Z" fill="#0F2137"/>
</svg>
